<svg width="15" height="15" fill="none" xmlns="http://www.w3.org/2000/svg"><path d="M10.364 7.865c-.03.043-.03.087-.044.145a.356.356 0 0 0 .32.38.356.356 0 0 0 .38-.321c0-.044 0-.088.014-.16v-.16c0-.424-.073-.832-.204-1.225a3.68 3.68 0 0 0-.845-1.342 3.69 3.69 0 0 0-1.633-.947 3.867 3.867 0 0 0-.918-.117c-.102 0-.204 0-.32.015l-.307.044c-.19.029-.32.218-.277.393.03.19.219.32.394.277.087-.014.16-.029.247-.029h.044c.073 0 .146-.015.219-.015.802 0 1.545.321 2.07.86a2.94 2.94 0 0 1 .86 2.041v.16z" fill="#fff"/><path d="M12.289 8.185a.356.356 0 0 0 .32.38.356.356 0 0 0 .38-.321c.014-.16.014-.321.014-.481 0-.321-.03-.627-.073-.933a5.542 5.542 0 0 0-1.56-3.018 5.53 5.53 0 0 0-3.498-1.618c-.146-.015-.306-.015-.452-.015-.16 0-.32 0-.481.015-.16.015-.321.03-.481.058-.19.03-.321.219-.277.394.029.19.218.32.393.277.102-.015.19-.03.292-.044.044 0 .087-.014.131-.014.146-.015.292-.015.423-.015.495 0 .962.073 1.414.204a4.845 4.845 0 0 1 2.055 1.225 5.007 5.007 0 0 1 1.094 1.647 4.94 4.94 0 0 1 .35 1.807v.146a1.19 1.19 0 0 0-.044.306z" fill="#fff"/><path d="M12.784 2.413A7.568 7.568 0 0 0 6.75.212a5.057 5.057 0 0 0-.656.087c-.19.03-.32.219-.277.394.03.19.219.32.394.277.102-.015.19-.03.291-.044.102-.015.204-.03.307-.03.204-.014.393-.028.597-.028 1.895 0 3.615.772 4.87 2.011a6.862 6.862 0 0 1 2.01 4.87v.32c0 .087-.014.175-.014.277a.356.356 0 0 0 .32.379.356.356 0 0 0 .38-.32c.014-.22.029-.438.029-.642 0-2.085-.845-3.98-2.216-5.35zm1.676 8.834l-2.58-1.385c-.86-.467-.889-.16-1.793.802-.218.233-.627.845-1.108.728-1.006-.247-2.886-1.72-3.498-2.39-.292-.321-1.546-1.852-1.56-2.347-.03-.758 1.633-1.137 1.093-2.58l-1.151-2.58C2.783-.985-.234 2.98.014 4.832.656 9.395 8.66 16.77 13.12 14.337c.992-.554 2.333-2.493 1.341-3.09z" fill="#fff"/></svg>