<svg width="50" height="49" fill="none" xmlns="http://www.w3.org/2000/svg"><path d="M16.833 47.776a1.06 1.06 0 0 1 1.46-1.535.05.05 0 0 1 .022.041.049.049 0 0 1-.022.04l-.13.133c-.02.028-.045.028-.072 0a.758.758 0 0 0-.795-.142.762.762 0 0 0-.45.705.75.75 0 0 0 .214.537.7.7 0 0 0 .525.224.827.827 0 0 0 .506-.195.052.052 0 0 1 .07 0l.136.132a.05.05 0 0 1 .015.04.065.065 0 0 1-.019.04.984.984 0 0 1-.713.285 1.025 1.025 0 0 1-.747-.305zm2.624 0a1.065 1.065 0 1 1 .748.307 1.016 1.016 0 0 1-.748-.307zm.213-1.289a.74.74 0 0 0-.224.542.762.762 0 1 0 1.3-.541.77.77 0 0 0-.832-.17.727.727 0 0 0-.244.17zm2.574.8v-1.23A.057.057 0 0 1 22.3 46h.197a.056.056 0 0 1 .052.034.055.055 0 0 1 .004.022v1.212a.535.535 0 0 0 .133.375.448.448 0 0 0 .355.148.465.465 0 0 0 .358-.146.53.53 0 0 0 .135-.37v-1.22a.054.054 0 0 1 .016-.04.053.053 0 0 1 .04-.015h.197c.014 0 .028.006.038.017.01.01.017.024.018.039v1.23a.8.8 0 1 1-1.599 0zm3.011.71v-1.723h-.482a.055.055 0 0 1-.04-.017.056.056 0 0 1-.016-.04v-.164a.053.053 0 0 1 .016-.04.054.054 0 0 1 .04-.015h1.263a.054.054 0 0 1 .056.055v.165a.056.056 0 0 1-.034.051.055.055 0 0 1-.022.005h-.48v1.723a.054.054 0 0 1-.016.038.052.052 0 0 1-.04.018h-.194a.051.051 0 0 1-.04-.018.054.054 0 0 1-.01-.038zm1.718-.71v-1.23c0-.015.007-.03.018-.04a.056.056 0 0 1 .038-.016h.197a.054.054 0 0 1 .056.056v1.212a.537.537 0 0 0 .134.375.446.446 0 0 0 .353.148.467.467 0 0 0 .36-.154.53.53 0 0 0 .135-.37v-1.219a.054.054 0 0 1 .015-.04.056.056 0 0 1 .04-.016h.196a.057.057 0 0 1 .056.056v1.23a.784.784 0 0 1-.802.796.766.766 0 0 1-.569-.229.783.783 0 0 1-.227-.559zm2.73.71v-1.944c0-.007 0-.014.004-.021a.054.054 0 0 1 .012-.019.056.056 0 0 1 .039-.015h.8a.621.621 0 0 1 .447.183.598.598 0 0 1 .188.447.578.578 0 0 1-.119.358.72.72 0 0 1-.315.238l.402.746a.056.056 0 0 1-.05.085h-.23a.047.047 0 0 1-.046-.026l-.39-.782h-.448v.748a.05.05 0 0 1-.018.038.051.051 0 0 1-.038.018h-.191a.051.051 0 0 1-.04-.016.053.053 0 0 1-.007-.038zm.308-1.006h.523a.344.344 0 0 0 .25-.112.35.35 0 0 0 .112-.258.338.338 0 0 0-.112-.244.346.346 0 0 0-.25-.104h-.523v.718zm2.233 1.006v-1.944a.053.053 0 0 1 .015-.04.056.056 0 0 1 .04-.015h1.175a.054.054 0 0 1 .04.015.053.053 0 0 1 .016.04v.165a.055.055 0 0 1-.056.056h-.928v.598h.783a.061.061 0 0 1 .056.056v.164a.054.054 0 0 1-.056.056h-.783v.632h.928a.053.053 0 0 1 .04.016.054.054 0 0 1 .016.04v.161a.054.054 0 0 1-.056.056h-1.175a.05.05 0 0 1-.04-.016.055.055 0 0 1-.015-.04zM30.72 9.145L25.139.086a.178.178 0 0 0-.305.001L19.368 9.2a.177.177 0 0 0-.009.169l2.395 5.088a.18.18 0 0 0 .071.079l3.27 1.926a.18.18 0 0 0 .178.003l3.244-1.774a.182.182 0 0 0 .08-.09l2.137-5.295a.178.178 0 0 0-.014-.161zm-.377.073a.087.087 0 0 1 .006.08l-.015.04-3.355 3.21-1.87-2.384a.09.09 0 0 0-.036-.026V.667l5.27 8.55zm-5.257 6.822L22.1 14.28l1.1-1.515 1.88 1.74.006 1.535zm.112-1.782a.09.09 0 0 1-.123 0l-1.772-1.64 1.686-2.322 1.866 2.374-1.657 1.588zm-5.45-5L24.893.674v9.416a.09.09 0 0 1-.018.053l-1.709 2.348-3.425-3.168a.085.085 0 0 1 .007-.064v-.001zm.185.487l3.131 2.897-1.074 1.48-2.057-4.377zm5.33 6.314v-1.614l1.702-1.63 1.275 1.619-2.977 1.625zm3.077-1.79l-1.245-1.58 3.074-2.945-1.83 4.525zM4.674 29.981l-.336-.18c-1.474-.804-3.31-1.806-3.31-3.222 0-1.565 1.268-2.907 2.767-2.922 1.71-.037 2.562 2.013 2.572 2.037l.014.034h.316l-.028-.075c-.01-.023-.851-2.246-2.84-2.246h-.053c-1.89.018-3.487 1.616-3.487 3.487 0 2.033 1.923 3.1 3.784 4.138l.248.137c.84.46 2.796 1.747 2.796 3.738 0 3.195-2.273 4.07-3.476 4.085C1.588 39.03.351 36.97.338 36.95l-.016-.027H0l.044.082c.01.023 1.23 2.298 3.568 2.298h.024c2.31-.021 4.336-2.166 4.336-4.592.004-1.892-1.107-3.482-3.298-4.729zm4.636 9.315h.29l1.736-7.436h2.693l1.814 7.436h1.082L13.046 23.22 9.309 39.296zm2.093-7.724l1.251-5.421 1.309 5.42h-2.56zm10.619-8.165h-2.64v15.89h1.059V29.138h1.739a2.442 2.442 0 0 0 1.89-.91 3.078 3.078 0 0 0 .71-1.946c0-1.586-1.237-2.877-2.758-2.877zm-1.581.29h1.581c.938 0 1.62 1.086 1.62 2.586 0 1.892-.837 2.572-1.62 2.572h-1.581v-5.159zm7.284 15.599h1.058V28.922h5.719v-.29h-5.72v-4.936h5.72v-.29h-6.777v15.89zm10.78-15.889h-1.057v15.89h1.057v-15.89zm6.809 5.697a2.899 2.899 0 0 0 2.224-2.821c0-1.586-1.236-2.877-2.757-2.877h-2.64v15.89H43.2V29.14h1.073l4.658 10.157H50l-4.686-10.192zm-2.115-5.408h1.582c.939 0 1.62 1.087 1.62 2.587 0 1.892-.838 2.572-1.62 2.572h-1.582v-5.159z" fill="#223F78"/></svg>