<svg width="50" height="46" fill="none" xmlns="http://www.w3.org/2000/svg"><path d="M16.833 45.113a.965.965 0 0 1-.29-.504.92.92 0 0 1 .062-.567c.08-.18.216-.334.39-.442.174-.108.379-.165.588-.165a1.1 1.1 0 0 1 .726.27.043.043 0 0 1 0 .043.047.047 0 0 1-.016.017l-.13.122c-.02.026-.045.026-.072 0a.792.792 0 0 0-.509-.182.74.74 0 0 0-.286.051.695.695 0 0 0-.238.156.68.68 0 0 0-.213.498.652.652 0 0 0 .054.27.692.692 0 0 0 .16.229.7.7 0 0 0 .24.156c.09.036.188.053.286.052a.865.865 0 0 0 .506-.181.054.054 0 0 1 .035-.013c.013 0 .026.005.035.013l.136.122a.04.04 0 0 1 .012.017.043.043 0 0 1 .003.02.058.058 0 0 1-.019.037.997.997 0 0 1-.328.2 1.056 1.056 0 0 1-.385.065 1.096 1.096 0 0 1-.405-.07 1.037 1.037 0 0 1-.342-.214zm2.624 0a.933.933 0 0 1-.14-1.248c.137-.19.34-.332.576-.4.236-.066.49-.055.718.032.228.087.416.244.533.446a.926.926 0 0 1 .106.66.978.978 0 0 1-.368.571c-.19.145-.43.225-.677.224a1.086 1.086 0 0 1-.405-.07 1.026 1.026 0 0 1-.343-.215zm.213-1.196a.687.687 0 0 0-.168.23.682.682 0 0 0 .167.771.792.792 0 0 0 .538.208c.1 0 .2-.017.292-.053a.746.746 0 0 0 .247-.155.678.678 0 0 0 .167-.227.636.636 0 0 0 .056-.271.69.69 0 0 0-.224-.502.8.8 0 0 0-.83-.157.734.734 0 0 0-.245.156zm2.574.743v-1.142c0-.014.007-.027.017-.037a.06.06 0 0 1 .04-.015h.196c.015 0 .029.005.04.014a.04.04 0 0 1 .012.017.048.048 0 0 1 .004.02v1.126a.476.476 0 0 0 .133.348c.045.046.1.082.16.106a.478.478 0 0 0 .195.032.498.498 0 0 0 .358-.136.472.472 0 0 0 .135-.344v-1.132a.047.047 0 0 1 .016-.037.058.058 0 0 1 .04-.015h.197a.065.065 0 0 1 .038.016.06.06 0 0 1 .018.036v1.142c.004.1-.014.2-.052.293a.736.736 0 0 1-.172.25.805.805 0 0 1-.262.168.855.855 0 0 1-.626 0 .804.804 0 0 1-.263-.168.738.738 0 0 1-.171-.25.695.695 0 0 1-.053-.293zm3.011.659v-1.6h-.482a.058.058 0 0 1-.04-.016.05.05 0 0 1-.016-.036v-.153a.05.05 0 0 1 .016-.037.055.055 0 0 1 .018-.011.06.06 0 0 1 .022-.004h1.263a.06.06 0 0 1 .021.004.055.055 0 0 1 .019.011.05.05 0 0 1 .012.017.047.047 0 0 1 .004.02v.153a.05.05 0 0 1-.016.036.056.056 0 0 1-.04.016h-.48v1.6a.05.05 0 0 1-.016.035.054.054 0 0 1-.04.017h-.194a.054.054 0 0 1-.04-.017.048.048 0 0 1-.01-.035zm1.718-.659v-1.143a.05.05 0 0 1 .018-.036.058.058 0 0 1 .038-.016h.197a.058.058 0 0 1 .04.015.047.047 0 0 1 .016.037v1.126a.478.478 0 0 0 .134.348.478.478 0 0 0 .353.138.497.497 0 0 0 .36-.143.472.472 0 0 0 .135-.344V43.51c0-.007 0-.014.003-.02a.05.05 0 0 1 .012-.017.058.058 0 0 1 .04-.015h.196c.015 0 .03.006.04.016.01.01.016.023.016.036v1.142a.68.68 0 0 1-.057.287.725.725 0 0 1-.174.242.79.79 0 0 1-.262.16.835.835 0 0 1-.309.05.819.819 0 0 1-.308-.05.774.774 0 0 1-.43-.4.682.682 0 0 1-.058-.281zm2.73.658v-1.804c0-.007 0-.013.004-.02a.048.048 0 0 1 .012-.017.059.059 0 0 1 .039-.015h.8a.663.663 0 0 1 .447.17c.06.054.109.118.141.19a.52.52 0 0 1 .047.226.511.511 0 0 1-.119.332.71.71 0 0 1-.315.221l.402.692a.049.049 0 0 1 0 .053.058.058 0 0 1-.05.025h-.23a.05.05 0 0 1-.027-.004.045.045 0 0 1-.02-.019l-.39-.726h-.447v.694a.043.043 0 0 1-.005.02.047.047 0 0 1-.013.016.053.053 0 0 1-.038.017h-.191a.071.071 0 0 1-.021-.004.05.05 0 0 1-.018-.011.046.046 0 0 1-.008-.036zm.308-.934h.523a.343.343 0 0 0 .25-.104.328.328 0 0 0 .083-.108.306.306 0 0 0 .03-.13.295.295 0 0 0-.031-.125.315.315 0 0 0-.082-.103.35.35 0 0 0-.25-.096h-.523v.666zm2.233.935v-1.805a.047.047 0 0 1 .016-.037.059.059 0 0 1 .039-.015h1.175a.06.06 0 0 1 .022.004.055.055 0 0 1 .018.011.05.05 0 0 1 .012.017.047.047 0 0 1 .004.02v.153a.05.05 0 0 1-.016.036.056.056 0 0 1-.04.016h-.928v.555h.783a.064.064 0 0 1 .038.017c.01.01.016.022.018.035v.153a.052.052 0 0 1-.016.037.057.057 0 0 1-.04.014h-.783v.587h.928a.057.057 0 0 1 .04.015.05.05 0 0 1 .012.017.047.047 0 0 1 .004.02v.15a.052.052 0 0 1-.016.037.055.055 0 0 1-.04.015h-1.175a.055.055 0 0 1-.04-.015.05.05 0 0 1-.012-.017.047.047 0 0 1-.003-.02zM30.72 9.257L25.139.85a.172.172 0 0 0-.065-.059.188.188 0 0 0-.175.001.176.176 0 0 0-.065.059l-5.466 8.458a.156.156 0 0 0-.009.157l2.395 4.723c.015.03.04.056.071.073l3.27 1.788a.189.189 0 0 0 .178.003l3.244-1.647a.174.174 0 0 0 .08-.084l2.137-4.914a.154.154 0 0 0-.014-.15zm-.377.068a.076.076 0 0 1 .006.075l-.015.037-3.355 2.98-1.87-2.214a.09.09 0 0 0-.036-.024V1.388l5.27 7.937zm-5.257 6.332L22.1 14.023l1.1-1.405 1.88 1.615.006 1.424zm.112-1.654a.095.095 0 0 1-.061.023.094.094 0 0 1-.062-.023l-1.772-1.523 1.686-2.155 1.866 2.204-1.657 1.474zm-5.45-4.64l5.145-7.968v8.74a.08.08 0 0 1-.018.048l-1.709 2.18-3.425-2.94a.074.074 0 0 1 .007-.06zm.185.452l3.131 2.688-1.074 1.374-2.057-4.062zm5.33 5.86v-1.498l1.702-1.514 1.275 1.503-2.977 1.509zm3.077-1.661l-1.245-1.467 3.074-2.733-1.83 4.2zM4.674 28.597l-.336-.167c-1.474-.746-3.31-1.676-3.31-2.99 0-1.454 1.268-2.7 2.767-2.713 1.71-.034 2.562 1.869 2.572 1.89l.014.033h.316l-.028-.07c-.01-.022-.851-2.085-2.84-2.085h-.053c-1.89.017-3.487 1.5-3.487 3.236 0 1.887 1.923 2.878 3.784 3.841l.248.128c.84.427 2.796 1.621 2.796 3.469 0 2.965-2.273 3.777-3.476 3.792-2.053.035-3.29-1.877-3.303-1.897l-.016-.025H0l.044.076c.01.022 1.23 2.133 3.568 2.133h.024c2.31-.02 4.336-2.01 4.336-4.262.004-1.756-1.107-3.231-3.298-4.389zm4.636 8.645h.29l1.736-6.902h2.693l1.814 6.902h1.082l-3.879-14.921-3.738 14.921zm2.093-7.17l1.251-5.03 1.309 5.03h-2.56zm10.619-7.577h-2.64v14.747h1.059v-9.426h1.739a2.6 2.6 0 0 0 1.048-.225c.327-.146.615-.358.843-.62a2.736 2.736 0 0 0 .709-1.806c0-1.472-1.237-2.67-2.758-2.67zm-1.581.269h1.581c.938 0 1.62 1.009 1.62 2.4 0 1.757-.837 2.388-1.62 2.388h-1.581v-4.788zm7.284 14.478h1.058v-9.628h5.719v-.269h-5.72v-4.581h5.72v-.27h-6.777v14.748zm10.78-14.747h-1.057v14.747h1.057V22.495zm6.809 5.287a2.931 2.931 0 0 0 1.602-.95 2.57 2.57 0 0 0 .622-1.668c0-1.471-1.236-2.67-2.757-2.67h-2.64v14.748H43.2v-9.426h1.073l4.658 9.426H50l-4.686-9.46zm-2.115-5.018h1.582c.939 0 1.62 1.009 1.62 2.4 0 1.757-.838 2.388-1.62 2.388h-1.582v-4.788z" fill="#fff"/></svg>