<svg width="15" height="15" fill="none" xmlns="http://www.w3.org/2000/svg"><path d="M7.5 0C3.38 0 0 3.38 0 7.5a7.45 7.45 0 0 0 1.062 3.841L0 15l3.659-1.062A7.45 7.45 0 0 0 7.5 15c4.12 0 7.5-3.38 7.5-7.5S11.62 0 7.5 0zm4.69 10.669l-.35.349c-.493.494-1.629.454-2.358.314-2.426-.469-5.254-3.21-5.8-5.584-.27-1.176-.12-2.199.27-2.589L4.3 2.81a.494.494 0 0 1 .698 0l1.396 1.396a.49.49 0 0 1 .144.35.488.488 0 0 1-.144.348l-.349.35a.989.989 0 0 0 0 1.395L8.35 8.924a.986.986 0 0 0 1.396 0l.35-.349a.516.516 0 0 1 .697 0l1.396 1.396a.493.493 0 0 1 0 .698z" fill="#fff"/></svg>