<svg width="15" height="15" viewBox="0 0 15 15" fill="none" xmlns="http://www.w3.org/2000/svg">
<path d="M10.3638 7.86469C10.3347 7.90843 10.3347 7.95216 10.3201 8.01047C10.3055 8.19998 10.4513 8.37491 10.6408 8.38948C10.8303 8.40406 11.0052 8.25829 11.0198 8.06878C11.0198 8.02505 11.0198 7.98131 11.0344 7.90843C11.0344 7.83554 11.0344 7.79181 11.0344 7.74807C11.0344 7.32533 10.9615 6.91716 10.8303 6.52357C10.6554 6.01336 10.3493 5.56146 9.98483 5.18244C9.53293 4.73054 8.97899 4.40984 8.35216 4.23491C8.06061 4.16202 7.73991 4.11829 7.43379 4.11829C7.33174 4.11829 7.2297 4.11829 7.11308 4.13286C7.01104 4.14744 6.909 4.16202 6.80696 4.1766C6.61745 4.20575 6.48626 4.39526 6.52999 4.57019C6.55914 4.75969 6.74865 4.89089 6.92358 4.84716C7.01104 4.83258 7.08393 4.818 7.17139 4.818C7.18597 4.818 7.20055 4.818 7.21513 4.818C7.28801 4.818 7.3609 4.80343 7.43379 4.80343C8.23554 4.80343 8.97899 5.12413 9.50378 5.6635C10.0286 6.18829 10.3493 6.90258 10.3638 7.70434V7.7335C10.3638 7.79181 10.3638 7.83554 10.3638 7.86469Z" fill="white"/>
<path d="M12.2886 8.18534C12.2741 8.37484 12.4198 8.54977 12.6093 8.56435C12.7989 8.57893 12.9738 8.43315 12.9884 8.24365C13.0029 8.08329 13.0029 7.92294 13.0029 7.76259C13.0029 7.44189 12.9738 7.13576 12.9301 6.82964C12.7405 5.66344 12.172 4.61387 11.3703 3.81211C10.4519 2.89374 9.22738 2.29606 7.87167 2.19402C7.7259 2.17944 7.56554 2.17944 7.41977 2.17944C7.25942 2.17944 7.09907 2.17944 6.93871 2.19402C6.77836 2.2086 6.61801 2.22318 6.45766 2.25233C6.26815 2.28149 6.13695 2.47099 6.18068 2.64592C6.20984 2.83543 6.39935 2.96662 6.57428 2.92289C6.67632 2.90831 6.76378 2.89374 6.86583 2.87916C6.90956 2.87916 6.95329 2.86458 6.99702 2.86458C7.1428 2.85 7.28857 2.85 7.41977 2.85C7.9154 2.85 8.38188 2.92289 8.83378 3.05409C9.62097 3.28733 10.3207 3.71007 10.8892 4.27859C11.3557 4.74507 11.7347 5.31359 11.9825 5.92584C12.2012 6.47978 12.3324 7.09203 12.3324 7.73344C12.3324 7.77717 12.3324 7.83548 12.3324 7.87921C12.3032 7.99583 12.2886 8.08329 12.2886 8.18534Z" fill="white"/>
<path d="M12.7843 2.41272C11.3994 1.02786 9.50434 0.182373 7.40519 0.182373C7.18653 0.182373 6.96786 0.19695 6.7492 0.211528C6.53054 0.226105 6.31188 0.25526 6.09322 0.298993C5.90371 0.328147 5.77251 0.517654 5.81624 0.692583C5.8454 0.88209 6.03491 1.01329 6.20983 0.969555C6.31188 0.954977 6.39934 0.9404 6.50138 0.925822C6.60343 0.911245 6.70547 0.896668 6.80751 0.896668C7.0116 0.88209 7.2011 0.867513 7.40519 0.867513C9.30026 0.867513 11.0204 1.64012 12.2741 2.8792C13.5131 4.11828 14.2857 5.83842 14.2857 7.74806C14.2857 7.85011 14.2857 7.96672 14.2857 8.06877C14.2857 8.15623 14.2712 8.2437 14.2712 8.34574C14.2566 8.53524 14.4024 8.71017 14.5919 8.72475C14.7814 8.73933 14.9563 8.59355 14.9709 8.40405C14.9855 8.18539 15 7.96672 15 7.76264C15 5.67807 14.1546 3.783 12.7843 2.41272Z" fill="white"/>
<path d="M14.4604 11.2466L11.8802 9.86177C11.0201 9.3953 10.991 9.70142 10.0872 10.6635C9.86851 10.8968 9.46034 11.509 8.97928 11.3924C7.97344 11.1446 6.09295 9.67227 5.4807 9.00171C5.18915 8.681 3.93549 7.15037 3.92091 6.65474C3.89176 5.89671 5.55359 5.5177 5.01422 4.07453L3.8626 1.49433C2.78387 -0.983839 -0.233657 2.98122 0.0141596 4.83256C0.655567 9.3953 8.65858 16.7715 13.1193 14.337C14.1105 13.7831 15.4517 11.8443 14.4604 11.2466Z" fill="white"/>
</svg>
