<svg width="15" height="15" viewBox="0 0 15 15" fill="none" xmlns="http://www.w3.org/2000/svg">
<path d="M12.8027 0H2.19727C0.985794 0 0 0.985794 0 2.19727V12.8027C0 14.0142 0.985794 15 2.19727 15H12.8027C14.0142 15 15 14.0142 15 12.8027V2.19727C15 0.985794 14.0142 0 12.8027 0ZM7.5293 11.4258C5.3484 11.4258 3.57422 9.6516 3.57422 7.4707C3.57422 5.2898 5.3484 3.51562 7.5293 3.51562C9.7102 3.51562 11.4844 5.2898 11.4844 7.4707C11.4844 9.6516 9.7102 11.4258 7.5293 11.4258ZM11.9238 4.39453C11.1969 4.39453 10.6055 3.8031 10.6055 3.07617C10.6055 2.34924 11.1969 1.75781 11.9238 1.75781C12.6508 1.75781 13.2422 2.34924 13.2422 3.07617C13.2422 3.8031 12.6508 4.39453 11.9238 4.39453Z" fill="white"/>
</svg>
