<svg width="50" height="49" viewBox="0 0 50 49" fill="none" xmlns="http://www.w3.org/2000/svg">
<path d="M16.8328 47.7757C16.685 47.6273 16.5844 47.4384 16.5438 47.233C16.5033 47.0275 16.5244 46.8146 16.6047 46.6211C16.685 46.4277 16.8208 46.2624 16.9949 46.146C17.169 46.0296 17.3738 45.9674 17.5832 45.9673C17.8458 45.9669 18.0991 46.0646 18.2934 46.2413C18.3 46.2458 18.3055 46.2519 18.3093 46.259C18.3131 46.2661 18.3151 46.274 18.3151 46.2821C18.3151 46.2902 18.3131 46.2981 18.3093 46.3052C18.3055 46.3123 18.3 46.3184 18.2934 46.3229L18.1636 46.4549C18.1424 46.4829 18.1178 46.4829 18.0909 46.4549C17.9516 46.3284 17.7702 46.2583 17.5821 46.2581C17.4838 46.256 17.3862 46.2749 17.2958 46.3135C17.2053 46.352 17.1241 46.4094 17.0576 46.4817C16.919 46.6259 16.8427 46.8187 16.8451 47.0186C16.8436 47.1178 16.8618 47.2163 16.8987 47.3085C16.9355 47.4006 16.9903 47.4845 17.0598 47.5554C17.1267 47.6276 17.2081 47.6849 17.2987 47.7235C17.3893 47.762 17.487 47.781 17.5854 47.779C17.771 47.7727 17.949 47.7042 18.0909 47.5845C18.1005 47.5755 18.1131 47.5705 18.1262 47.5705C18.1393 47.5705 18.1519 47.5755 18.1614 47.5845L18.2967 47.7164C18.3021 47.7214 18.3062 47.7275 18.3089 47.7342C18.3117 47.741 18.3128 47.7483 18.3124 47.7556C18.311 47.7708 18.3042 47.7851 18.2934 47.7958C18.1996 47.8887 18.0881 47.9618 17.9655 48.0107C17.843 48.0597 17.7118 48.0836 17.5798 48.081C17.4411 48.0833 17.3034 48.0574 17.175 48.0049C17.0466 47.9524 16.9302 47.8745 16.8328 47.7757Z" fill="#223F78"/>
<path d="M19.4573 47.7757C19.282 47.6023 19.1722 47.3734 19.1468 47.1281C19.1214 46.8829 19.182 46.6364 19.3181 46.4308C19.4543 46.2251 19.6576 46.0732 19.8933 46.0008C20.129 45.9284 20.3826 45.9401 20.6107 46.0338C20.8387 46.1276 21.0272 46.2976 21.1439 46.5148C21.2605 46.7321 21.2982 46.9831 21.2503 47.225C21.2025 47.4669 21.0722 47.6847 20.8817 47.8413C20.6911 47.9978 20.4521 48.0833 20.2055 48.0832C20.0664 48.0859 19.9282 48.06 19.7995 48.0071C19.6708 47.9542 19.5544 47.8754 19.4573 47.7757ZM19.6698 46.4873C19.5977 46.5576 19.5406 46.6418 19.5022 46.7349C19.4637 46.828 19.4447 46.9279 19.4461 47.0286C19.4464 47.2302 19.5267 47.4235 19.6692 47.566C19.8118 47.7086 20.005 47.7888 20.2066 47.7891C20.307 47.7903 20.4065 47.7712 20.4992 47.7327C20.5919 47.6943 20.6757 47.6373 20.7457 47.5654C20.8178 47.4961 20.8749 47.4126 20.9134 47.3203C20.9518 47.2279 20.9709 47.1286 20.9694 47.0286C20.9688 46.8259 20.8882 46.6316 20.7452 46.4879C20.6022 46.3443 20.4082 46.2629 20.2055 46.2614C20.1055 46.2603 20.0063 46.2798 19.9142 46.3187C19.822 46.3575 19.7388 46.4149 19.6698 46.4873Z" fill="#223F78"/>
<path d="M22.2445 47.2869V46.0567C22.2448 46.042 22.2508 46.0279 22.2612 46.0175C22.2716 46.0071 22.2857 46.0011 22.3004 46.0008H22.4973C22.5119 46.0007 22.5259 46.0063 22.5364 46.0164C22.5418 46.0216 22.5461 46.0279 22.549 46.0348C22.5519 46.0418 22.5533 46.0492 22.5532 46.0567V47.269C22.5478 47.4064 22.5955 47.5405 22.6863 47.6437C22.7306 47.6933 22.7854 47.7323 22.8467 47.7581C22.9081 47.7838 22.9744 47.7955 23.0408 47.7924C23.1075 47.7951 23.1739 47.7834 23.2357 47.7581C23.2974 47.7328 23.353 47.6946 23.3987 47.6459C23.4897 47.5445 23.5381 47.4119 23.534 47.2757V46.0567C23.5337 46.0493 23.5349 46.0419 23.5376 46.0349C23.5403 46.028 23.5444 46.0217 23.5497 46.0165C23.5549 46.0112 23.5612 46.0071 23.5681 46.0044C23.5751 46.0017 23.5825 46.0005 23.5899 46.0008H23.7867C23.8011 46.0013 23.8147 46.0073 23.8248 46.0176C23.8356 46.0278 23.842 46.0418 23.8427 46.0567V47.2869C23.8467 47.3944 23.829 47.5015 23.7906 47.602C23.7523 47.7024 23.6941 47.7941 23.6195 47.8716C23.5449 47.949 23.4554 48.0106 23.3565 48.0527C23.2575 48.0948 23.1511 48.1165 23.0436 48.1165C22.9361 48.1165 22.8296 48.0948 22.7307 48.0527C22.6317 48.0106 22.5423 47.949 22.4677 47.8716C22.3931 47.7941 22.3349 47.7024 22.2965 47.602C22.2582 47.5015 22.2405 47.3944 22.2445 47.2869Z" fill="#223F78"/>
<path d="M25.2551 47.9971V46.2737H24.7731C24.7656 46.2738 24.7581 46.2724 24.7512 46.2695C24.7443 46.2666 24.738 46.2623 24.7328 46.2569C24.7227 46.2464 24.7171 46.2324 24.7172 46.2178V46.0534C24.7168 46.046 24.7181 46.0386 24.7208 46.0316C24.7235 46.0247 24.7276 46.0184 24.7328 46.0132C24.7381 46.0079 24.7444 46.0038 24.7513 46.0011C24.7582 45.9984 24.7656 45.9972 24.7731 45.9975H26.0357C26.0432 45.9972 26.0506 45.9984 26.0575 46.0011C26.0644 46.0038 26.0707 46.0079 26.076 46.0132C26.0812 46.0184 26.0853 46.0247 26.088 46.0316C26.0907 46.0386 26.092 46.046 26.0916 46.0534V46.2178C26.0917 46.2324 26.0861 46.2464 26.076 46.2569C26.0708 46.2623 26.0645 46.2666 26.0576 46.2695C26.0507 46.2724 26.0432 46.2738 26.0357 46.2737H25.5559V47.9971C25.5559 48.0113 25.5502 48.025 25.5403 48.0351C25.5353 48.0409 25.5291 48.0455 25.5222 48.0486C25.5152 48.0517 25.5076 48.0532 25.5 48.053H25.3065C25.2989 48.0532 25.2914 48.0517 25.2844 48.0486C25.2774 48.0455 25.2712 48.0409 25.2663 48.0351C25.2579 48.0243 25.2539 48.0107 25.2551 47.9971Z" fill="#223F78"/>
<path d="M26.973 47.287V46.0568C26.9736 46.0419 26.9801 46.0279 26.9909 46.0177C27.0009 46.0074 27.0146 46.0014 27.0289 46.0009H27.2258C27.2332 46.0006 27.2406 46.0018 27.2475 46.0045C27.2544 46.0072 27.2607 46.0113 27.266 46.0166C27.2713 46.0218 27.2754 46.0281 27.2781 46.035C27.2808 46.042 27.282 46.0494 27.2817 46.0568V47.2691C27.2768 47.4066 27.3248 47.5407 27.4159 47.6437C27.4601 47.6932 27.5147 47.7322 27.5758 47.7579C27.637 47.7836 27.703 47.7954 27.7693 47.7925C27.8367 47.7942 27.9037 47.7813 27.9657 47.7546C28.0276 47.728 28.0831 47.6883 28.1283 47.6382C28.2193 47.5367 28.2678 47.4042 28.2636 47.268V46.049C28.2633 46.0415 28.2645 46.0341 28.2672 46.0272C28.2699 46.0203 28.274 46.014 28.2793 46.0087C28.2898 45.9986 28.3038 45.993 28.3184 45.993H28.5152C28.53 45.9933 28.544 45.9993 28.5545 46.0097C28.5649 46.0202 28.5709 46.0342 28.5712 46.049V47.2792C28.573 47.3847 28.5535 47.4895 28.5138 47.5874C28.474 47.6852 28.415 47.7739 28.34 47.8483C28.2651 47.9227 28.176 47.9812 28.0779 48.0202C27.9798 48.0592 27.8748 48.078 27.7693 48.0754C27.6637 48.0784 27.5587 48.0596 27.4608 48.0201C27.3628 47.9807 27.2741 47.9214 27.2 47.8462C27.1271 47.7726 27.0694 47.6853 27.0305 47.5893C26.9915 47.4934 26.972 47.3906 26.973 47.287Z" fill="#223F78"/>
<path d="M29.703 47.9971V46.0534C29.7026 46.046 29.7039 46.0385 29.7066 46.0316C29.7092 46.0247 29.7134 46.0184 29.7186 46.0131C29.7291 46.003 29.7432 45.9974 29.7578 45.9975H30.5574C30.6404 45.9966 30.7228 46.0123 30.7997 46.0438C30.8765 46.0753 30.9462 46.1219 31.0047 46.1809C31.0656 46.2382 31.1137 46.3076 31.1461 46.3847C31.1784 46.4617 31.1943 46.5447 31.1926 46.6282C31.1942 46.7574 31.1525 46.8834 31.0741 46.9861C30.9933 47.0934 30.884 47.1759 30.7587 47.2243L31.1613 47.9703C31.1666 47.9789 31.1694 47.9889 31.1695 47.999C31.1696 48.0092 31.1669 48.0192 31.1617 48.0279C31.1565 48.0366 31.1491 48.0438 31.1401 48.0486C31.1312 48.0534 31.1211 48.0557 31.111 48.0553H30.8817C30.8722 48.0563 30.8626 48.0544 30.8542 48.0498C30.8458 48.0452 30.839 48.0381 30.8348 48.0295L30.4444 47.2467H29.9971V47.9949C29.9971 48.0021 29.9955 48.0093 29.9924 48.0159C29.9893 48.0225 29.9848 48.0283 29.9792 48.0329C29.9745 48.0384 29.9687 48.0429 29.9621 48.046C29.9556 48.0491 29.9484 48.0507 29.9412 48.0508H29.7499C29.7427 48.0511 29.7354 48.0499 29.7287 48.0472C29.7219 48.0445 29.7158 48.0404 29.7108 48.0351C29.7035 48.0239 29.7007 48.0103 29.703 47.9971ZM30.0105 46.9906H30.5339C30.5811 46.9902 30.6278 46.9801 30.6709 46.9609C30.714 46.9416 30.7526 46.9137 30.7844 46.8787C30.8197 46.8459 30.8479 46.806 30.8671 46.7618C30.8864 46.7175 30.8963 46.6698 30.8963 46.6215C30.8955 46.5752 30.8852 46.5295 30.866 46.4873C30.8467 46.4452 30.819 46.4075 30.7844 46.3766C30.7518 46.3434 30.7128 46.317 30.6697 46.2992C30.6267 46.2813 30.5805 46.2723 30.5339 46.2726H30.0105V46.9906Z" fill="#223F78"/>
<path d="M32.2438 47.9971V46.0534C32.2434 46.046 32.2447 46.0386 32.2474 46.0316C32.2501 46.0247 32.2542 46.0184 32.2594 46.0131C32.2699 46.003 32.284 45.9974 32.2986 45.9975H33.474C33.4814 45.9972 33.4888 45.9984 33.4958 46.0011C33.5027 46.0038 33.509 46.0079 33.5142 46.0132C33.5195 46.0184 33.5236 46.0247 33.5263 46.0316C33.529 46.0386 33.5302 46.046 33.5299 46.0534V46.2178C33.53 46.2324 33.5244 46.2464 33.5142 46.2569C33.509 46.2624 33.5028 46.2666 33.4959 46.2695C33.4889 46.2724 33.4815 46.2738 33.474 46.2737H32.5457V46.8721H33.3286C33.343 46.8733 33.3565 46.8796 33.3667 46.8898C33.377 46.9001 33.3833 46.9136 33.3845 46.928V47.0924C33.3847 47.1073 33.379 47.1217 33.3689 47.1326C33.3636 47.1379 33.3573 47.142 33.3504 47.1447C33.3434 47.1474 33.336 47.1486 33.3286 47.1483H32.5457V47.7802H33.474C33.4814 47.7798 33.4888 47.7811 33.4958 47.7838C33.5027 47.7865 33.509 47.7906 33.5142 47.7958C33.5195 47.8011 33.5236 47.8074 33.5263 47.8143C33.529 47.8212 33.5302 47.8287 33.5299 47.8361V47.9971C33.53 48.0121 33.5244 48.0265 33.5142 48.0374C33.509 48.0426 33.5027 48.0467 33.4958 48.0494C33.4888 48.0521 33.4814 48.0534 33.474 48.053H32.2986C32.2913 48.0534 32.2841 48.0521 32.2773 48.0494C32.2706 48.0467 32.2645 48.0426 32.2594 48.0374C32.2542 48.0321 32.2501 48.0258 32.2474 48.0189C32.2447 48.012 32.2434 48.0046 32.2438 47.9971Z" fill="#223F78"/>
<path d="M30.7197 9.14491L25.139 0.0861133C25.1232 0.0598782 25.1009 0.0381656 25.0742 0.0230787C25.0476 0.00799179 25.0175 4.31734e-05 24.9869 0C24.9561 0.000395534 24.9258 0.00860419 24.899 0.0238602C24.8722 0.0391163 24.8497 0.0609211 24.8337 0.0872327L19.3682 9.19971C19.3528 9.2249 19.3439 9.25354 19.3424 9.28302C19.3408 9.3125 19.3466 9.34191 19.3592 9.36859L21.7537 14.4572C21.7694 14.4897 21.7943 14.5169 21.8253 14.5355L25.0954 16.4624C25.1232 16.4787 25.1549 16.4872 25.1871 16.487C25.2172 16.4867 25.2468 16.4791 25.2732 16.4646L28.5165 14.6909C28.5529 14.6708 28.5813 14.6388 28.597 14.6003L30.7342 9.30596C30.7447 9.27988 30.7488 9.25168 30.7463 9.22369C30.7438 9.19569 30.7346 9.1687 30.7197 9.14491ZM30.3428 9.21761C30.3504 9.22945 30.355 9.24299 30.3562 9.25703C30.3573 9.27107 30.355 9.28518 30.3495 9.29813L30.3338 9.33839L26.9787 12.5481L25.1088 10.1637C25.0992 10.1523 25.0869 10.1434 25.073 10.138V0.666548L30.3428 9.21761ZM25.0864 16.0397L22.1004 14.2794L23.1997 12.7651L25.0808 14.5053L25.0864 16.0397ZM25.1983 14.2581C25.1815 14.2736 25.1596 14.2822 25.1367 14.2822C25.1139 14.2822 25.092 14.2736 25.0752 14.2581L23.3026 12.6174L24.9891 10.2957L26.8546 12.67L25.1983 14.2581ZM19.7484 9.25787L24.8929 0.674377V10.0899C24.8926 10.1089 24.8864 10.1273 24.8751 10.1425L23.1662 12.4911L19.7406 9.32273C19.7348 9.30128 19.7376 9.27839 19.7484 9.25898V9.25787ZM19.933 9.74548L23.0644 12.6421L21.9896 14.1217L19.933 9.74548ZM25.2631 16.0587V14.4449L26.9653 12.8143L28.2402 14.4337L25.2631 16.0587ZM28.3398 14.2693L27.095 12.689L30.1694 9.74436L28.3398 14.2693Z" fill="#223F78"/>
<path d="M4.67367 29.9814L4.33816 29.8013C2.86415 28.9972 1.0289 27.9952 1.0289 26.5793C1.0289 25.0136 2.29602 23.6716 3.79463 23.657C5.50574 23.6201 6.35682 25.6701 6.36688 25.6936L6.38142 25.7282H6.6968L6.66884 25.6533C6.65989 25.6298 5.81776 23.4065 3.82818 23.4065H3.77562C1.88557 23.4255 0.288541 25.0225 0.288541 26.8936C0.288541 28.9268 2.21214 29.9937 4.07311 31.0315L4.32138 31.1691C5.16016 31.6299 7.11731 32.916 7.11731 34.9067C7.11731 38.1019 4.84366 38.9764 3.64141 38.9921C1.58809 39.0301 0.350052 36.9701 0.33775 36.9488L0.322091 36.922H0L0.0436181 37.0036C0.0548018 37.0271 1.27383 39.3019 3.61234 39.3019H3.63582C5.94526 39.2806 7.97174 37.1356 7.97174 34.7099C7.97622 32.8176 6.86456 31.2284 4.67367 29.9814Z" fill="#223F78"/>
<path d="M9.30939 39.2962H9.60128L11.337 31.8601H14.03L15.844 39.2962H16.9255L13.047 23.2196L9.30939 39.2962ZM11.403 31.5716L12.6544 26.1509L13.9629 31.5716H11.403Z" fill="#223F78"/>
<path d="M22.022 23.4065H19.3826V39.2963H20.4406V29.1393H22.1797C22.5428 29.1377 22.9009 29.0552 23.2281 28.8977C23.5552 28.7402 23.8431 28.5117 24.0708 28.2289C24.5249 27.6816 24.7754 26.994 24.7799 26.2829C24.7799 24.6971 23.543 23.4065 22.022 23.4065ZM20.4406 23.6962H22.022C22.9603 23.6962 23.6425 24.7832 23.6425 26.2829C23.6425 28.1752 22.8048 28.8552 22.022 28.8552H20.4406V23.6962Z" fill="#223F78"/>
<path d="M27.7247 39.2963H28.7826V28.9223H34.502V28.6326H28.7826V23.6962H34.502V23.4065H27.7247V39.2963Z" fill="#223F78"/>
<path d="M38.5055 23.4065H37.4476V39.2963H38.5055V23.4065Z" fill="#223F78"/>
<path d="M45.314 29.1035C45.9479 28.9519 46.5121 28.591 46.9157 28.0793C47.3193 27.5675 47.5387 26.9347 47.5384 26.2829C47.5384 24.6971 46.3015 23.4065 44.7805 23.4065H42.1412V39.2963H43.1992V29.1393H44.2717L48.9297 39.2963H50L45.314 29.1035ZM43.1992 23.6962H44.7805C45.72 23.6962 46.4011 24.7832 46.4011 26.2829C46.4011 28.1752 45.5634 28.8552 44.7805 28.8552H43.1992V23.6962Z" fill="#223F78"/>
</svg>
