<svg width="50" height="46" viewBox="0 0 50 46" fill="none" xmlns="http://www.w3.org/2000/svg">
<path d="M16.8328 45.1134C16.685 44.9756 16.5844 44.8003 16.5438 44.6095C16.5033 44.4188 16.5244 44.2212 16.6047 44.0416C16.685 43.862 16.8208 43.7085 16.9949 43.6005C17.169 43.4924 17.3738 43.4347 17.5832 43.4346C17.8458 43.4342 18.0991 43.5249 18.2934 43.6889C18.3001 43.6931 18.3055 43.6988 18.3093 43.7054C18.3131 43.712 18.3151 43.7193 18.3151 43.7268C18.3151 43.7343 18.3131 43.7417 18.3093 43.7483C18.3055 43.7549 18.3001 43.7605 18.2934 43.7647L18.1636 43.8872C18.1424 43.9132 18.1178 43.9132 18.0909 43.8872C17.9516 43.7698 17.7703 43.7047 17.5821 43.7045C17.4838 43.7026 17.3862 43.7202 17.2958 43.756C17.2053 43.7918 17.1241 43.845 17.0576 43.9121C16.919 44.0459 16.8427 44.2249 16.8451 44.4105C16.8436 44.5026 16.8618 44.5941 16.8987 44.6796C16.9355 44.7652 16.9903 44.8431 17.0598 44.9088C17.1267 44.9759 17.2081 45.0291 17.2987 45.0649C17.3893 45.1007 17.487 45.1182 17.5854 45.1165C17.771 45.1106 17.949 45.047 18.0909 44.9358C18.1005 44.9275 18.1131 44.9229 18.1262 44.9229C18.1393 44.9229 18.1519 44.9275 18.1614 44.9358L18.2967 45.0583C18.3021 45.0629 18.3062 45.0686 18.309 45.0749C18.3117 45.0812 18.3128 45.0879 18.3124 45.0947C18.311 45.1088 18.3043 45.1221 18.2934 45.132C18.1996 45.2182 18.0881 45.2861 17.9655 45.3316C17.843 45.377 17.7118 45.3992 17.5798 45.3968C17.4411 45.3989 17.3034 45.3749 17.175 45.3262C17.0466 45.2774 16.9302 45.205 16.8328 45.1134Z" fill="white"/>
<path d="M19.4573 45.1131C19.282 44.9522 19.1722 44.7398 19.1468 44.5122C19.1214 44.2845 19.182 44.0558 19.3181 43.865C19.4543 43.6741 19.6576 43.5331 19.8933 43.4659C20.129 43.3987 20.3826 43.4096 20.6107 43.4966C20.8387 43.5836 21.0272 43.7414 21.1439 43.943C21.2605 44.1446 21.2982 44.3775 21.2503 44.6021C21.2025 44.8266 21.0722 45.0287 20.8817 45.174C20.6911 45.3192 20.4521 45.3986 20.2055 45.3985C20.0664 45.401 19.9282 45.3769 19.7995 45.3278C19.6708 45.2787 19.5544 45.2056 19.4573 45.1131ZM19.6698 43.9174C19.5977 43.9827 19.5406 44.0608 19.5022 44.1472C19.4637 44.2336 19.4447 44.3263 19.4461 44.4198C19.4464 44.6069 19.5267 44.7862 19.6692 44.9185C19.8118 45.0508 20.005 45.1253 20.2066 45.1255C20.307 45.1267 20.4065 45.1089 20.4992 45.0732C20.5918 45.0375 20.6757 44.9847 20.7457 44.918C20.8178 44.8536 20.8749 44.7762 20.9134 44.6905C20.9518 44.6048 20.9709 44.5126 20.9694 44.4198C20.9688 44.2316 20.8882 44.0513 20.7452 43.918C20.6022 43.7847 20.4082 43.7092 20.2055 43.7078C20.1055 43.7068 20.0063 43.7249 19.9142 43.7609C19.822 43.797 19.7388 43.8503 19.6698 43.9174Z" fill="white"/>
<path d="M22.2445 44.6594V43.5175C22.2448 43.5038 22.2508 43.4908 22.2612 43.4811C22.2716 43.4714 22.2857 43.4659 22.3004 43.4656H22.4973C22.5119 43.4655 22.5259 43.4708 22.5364 43.4802C22.5418 43.485 22.5461 43.4908 22.549 43.4972C22.5519 43.5037 22.5533 43.5106 22.5532 43.5175V44.6428C22.5478 44.7703 22.5955 44.8948 22.6863 44.9906C22.7306 45.0366 22.7854 45.0729 22.8467 45.0968C22.9081 45.1207 22.9744 45.1316 23.0408 45.1287C23.1075 45.1311 23.1739 45.1203 23.2357 45.0968C23.2974 45.0734 23.353 45.0378 23.3987 44.9927C23.4897 44.8985 23.5381 44.7755 23.534 44.6491V43.5175C23.5337 43.5106 23.5349 43.5038 23.5376 43.4973C23.5403 43.4909 23.5444 43.4851 23.5497 43.4802C23.5549 43.4753 23.5612 43.4715 23.5681 43.469C23.5751 43.4665 23.5825 43.4653 23.5899 43.4656H23.7867C23.8011 43.4661 23.8147 43.4717 23.8248 43.4812C23.8356 43.4907 23.842 43.5037 23.8427 43.5175V44.6594C23.8467 44.7592 23.829 44.8587 23.7906 44.9519C23.7523 45.0451 23.6941 45.1303 23.6195 45.2021C23.5449 45.274 23.4554 45.3312 23.3565 45.3703C23.2575 45.4093 23.1511 45.4294 23.0436 45.4294C22.9361 45.4294 22.8296 45.4093 22.7307 45.3703C22.6317 45.3312 22.5423 45.274 22.4677 45.2021C22.3931 45.1303 22.3349 45.0451 22.2965 44.9519C22.2582 44.8587 22.2405 44.7592 22.2445 44.6594Z" fill="white"/>
<path d="M25.2551 45.3189V43.7189H24.7731C24.7656 43.719 24.7581 43.7177 24.7512 43.715C24.7443 43.7123 24.738 43.7083 24.7328 43.7033C24.7227 43.6936 24.7171 43.6805 24.7172 43.667V43.5144C24.7168 43.5075 24.7181 43.5006 24.7208 43.4942C24.7235 43.4877 24.7276 43.4819 24.7328 43.477C24.7381 43.4721 24.7444 43.4683 24.7513 43.4658C24.7582 43.4633 24.7656 43.4622 24.7731 43.4624H26.0357C26.0431 43.4622 26.0505 43.4633 26.0575 43.4658C26.0644 43.4683 26.0707 43.4721 26.076 43.477C26.0812 43.4819 26.0853 43.4877 26.088 43.4942C26.0907 43.5006 26.0919 43.5075 26.0916 43.5144V43.667C26.0917 43.6805 26.0861 43.6936 26.076 43.7033C26.0708 43.7083 26.0645 43.7123 26.0576 43.715C26.0507 43.7177 26.0432 43.719 26.0357 43.7189H25.5559V45.3189C25.5558 45.3321 25.5502 45.3448 25.5403 45.3542C25.5353 45.3596 25.5291 45.3639 25.5222 45.3667C25.5152 45.3696 25.5076 45.371 25.5 45.3708H25.3065C25.2989 45.371 25.2913 45.3696 25.2844 45.3667C25.2774 45.3639 25.2712 45.3596 25.2663 45.3542C25.2579 45.3442 25.2539 45.3316 25.2551 45.3189Z" fill="white"/>
<path d="M26.9731 44.6597V43.5174C26.9737 43.5036 26.9801 43.4906 26.991 43.4811C27.001 43.4716 27.0146 43.466 27.029 43.4655H27.2258C27.2332 43.4652 27.2407 43.4664 27.2476 43.4689C27.2545 43.4714 27.2608 43.4752 27.2661 43.4801C27.2713 43.485 27.2754 43.4908 27.2781 43.4972C27.2808 43.5037 27.282 43.5105 27.2817 43.5174V44.6431C27.2768 44.7707 27.3249 44.8953 27.4159 44.991C27.4601 45.0369 27.5148 45.0731 27.5759 45.097C27.637 45.1209 27.7031 45.1318 27.7693 45.1291C27.8368 45.1307 27.9038 45.1187 27.9657 45.0939C28.0277 45.0692 28.0832 45.0323 28.1283 44.9858C28.2193 44.8916 28.2678 44.7685 28.2637 44.6421V43.5102C28.2633 43.5033 28.2646 43.4964 28.2673 43.49C28.27 43.4835 28.2741 43.4777 28.2793 43.4728C28.2898 43.4634 28.3039 43.4582 28.3185 43.4583H28.5153C28.53 43.4585 28.5441 43.4641 28.5545 43.4738C28.5649 43.4834 28.5709 43.4965 28.5712 43.5102V44.6524C28.5731 44.7505 28.5535 44.8478 28.5138 44.9386C28.4741 45.0294 28.415 45.1119 28.3401 45.1809C28.2652 45.25 28.176 45.3043 28.0779 45.3405C27.9798 45.3768 27.8749 45.3942 27.7693 45.3918C27.6638 45.3946 27.5588 45.3771 27.4608 45.3404C27.3629 45.3038 27.2741 45.2488 27.2001 45.1789C27.1271 45.1106 27.0695 45.0296 27.0305 44.9405C26.9916 44.8513 26.972 44.7559 26.9731 44.6597Z" fill="white"/>
<path d="M29.703 45.3183V43.5143C29.7026 43.5074 29.7039 43.5006 29.7066 43.4941C29.7092 43.4877 29.7134 43.4818 29.7186 43.477C29.7291 43.4676 29.7432 43.4624 29.7578 43.4624H30.5574C30.6404 43.4616 30.7228 43.4762 30.7997 43.5055C30.8765 43.5347 30.9462 43.578 31.0047 43.6327C31.0656 43.6859 31.1137 43.7503 31.1461 43.8218C31.1784 43.8933 31.1943 43.9703 31.1926 44.0479C31.1942 44.1678 31.1525 44.2847 31.0741 44.38C30.9933 44.4796 30.884 44.5562 30.7587 44.6011L31.1613 45.2934C31.1666 45.3015 31.1694 45.3107 31.1695 45.3201C31.1696 45.3295 31.1669 45.3388 31.1617 45.3469C31.1565 45.355 31.1491 45.3617 31.1401 45.3661C31.1312 45.3706 31.1211 45.3728 31.111 45.3723H30.8817C30.8722 45.3733 30.8626 45.3715 30.8542 45.3672C30.8458 45.3629 30.839 45.3564 30.8347 45.3484L30.4444 44.6219H29.9971V45.3163C29.9971 45.323 29.9955 45.3297 29.9924 45.3358C29.9893 45.3419 29.9848 45.3473 29.9792 45.3516C29.9745 45.3567 29.9687 45.3609 29.9621 45.3637C29.9556 45.3666 29.9484 45.3681 29.9412 45.3682H29.7499C29.7427 45.3684 29.7354 45.3673 29.7287 45.3648C29.7219 45.3623 29.7158 45.3585 29.7108 45.3536C29.7035 45.3432 29.7007 45.3306 29.703 45.3183ZM30.0105 44.3842H30.5339C30.5811 44.3838 30.6278 44.3744 30.6709 44.3566C30.714 44.3387 30.7526 44.3128 30.7844 44.2804C30.8197 44.2498 30.8479 44.2129 30.8671 44.1718C30.8864 44.1307 30.8963 44.0864 30.8963 44.0416C30.8955 43.9986 30.8852 43.9562 30.866 43.9171C30.8467 43.878 30.819 43.843 30.7844 43.8143C30.7518 43.7835 30.7128 43.759 30.6697 43.7424C30.6267 43.7259 30.5805 43.7175 30.5339 43.7178H30.0105V44.3842Z" fill="white"/>
<path d="M32.2438 45.3189V43.5144C32.2435 43.5075 32.2447 43.5006 32.2474 43.4941C32.2501 43.4877 32.2542 43.4819 32.2595 43.477C32.27 43.4676 32.284 43.4624 32.2986 43.4624H33.474C33.4815 43.4622 33.4889 43.4633 33.4958 43.4658C33.5027 43.4683 33.509 43.4721 33.5143 43.477C33.5195 43.4819 33.5237 43.4877 33.5264 43.4942C33.5291 43.5006 33.5303 43.5075 33.53 43.5144V43.667C33.5301 43.6805 33.5244 43.6936 33.5143 43.7033C33.5091 43.7083 33.5028 43.7123 33.4959 43.715C33.489 43.7177 33.4815 43.719 33.474 43.7189H32.5458V44.2744H33.3287C33.3431 44.2756 33.3566 44.2814 33.3668 44.2909C33.377 44.3004 33.3833 44.3129 33.3846 44.3263V44.4789C33.3847 44.4928 33.3791 44.5062 33.3689 44.5163C33.3637 44.5212 33.3574 44.525 33.3504 44.5275C33.3435 44.53 33.3361 44.5311 33.3287 44.5308H32.5458V45.1175H33.474C33.4815 45.1172 33.4889 45.1183 33.4958 45.1208C33.5027 45.1233 33.509 45.1271 33.5143 45.132C33.5195 45.1369 33.5237 45.1427 33.5264 45.1492C33.5291 45.1556 33.5303 45.1625 33.53 45.1694V45.3189C33.5301 45.3328 33.5245 45.3461 33.5143 45.3563C33.509 45.3611 33.5028 45.365 33.4958 45.3675C33.4889 45.37 33.4815 45.3711 33.474 45.3708H32.2986C32.2914 45.3711 32.2841 45.3699 32.2774 45.3674C32.2706 45.3649 32.2645 45.3611 32.2595 45.3563C32.2542 45.3514 32.2501 45.3455 32.2474 45.3391C32.2447 45.3327 32.2435 45.3258 32.2438 45.3189Z" fill="white"/>
<path d="M30.7197 9.25734L25.139 0.848973C25.1232 0.824622 25.1009 0.804468 25.0742 0.790465C25.0476 0.776461 25.0175 0.769083 24.9869 0.769043C24.9561 0.76941 24.9258 0.777029 24.899 0.79119C24.8722 0.805351 24.8497 0.82559 24.8337 0.850012L19.3682 9.3082C19.3528 9.33159 19.3439 9.35816 19.3424 9.38553C19.3408 9.41289 19.3466 9.44019 19.3592 9.46495L21.7537 14.1882C21.7694 14.2183 21.7943 14.2436 21.8252 14.2608L25.0954 16.0494C25.1232 16.0646 25.1548 16.0725 25.1871 16.0723C25.2172 16.072 25.2468 16.0649 25.2732 16.0515L28.5165 14.4051C28.5528 14.3864 28.5813 14.3568 28.597 14.321L30.7342 9.40682C30.7447 9.38261 30.7488 9.35644 30.7463 9.33046C30.7438 9.30447 30.7346 9.27941 30.7197 9.25734ZM30.3428 9.32481C30.3504 9.33581 30.355 9.34838 30.3561 9.36141C30.3573 9.37444 30.355 9.38753 30.3495 9.39955L30.3338 9.43692L26.9787 12.4162L25.1088 10.203C25.0992 10.1924 25.0869 10.1842 25.073 10.1791V1.38773L30.3428 9.32481ZM25.0864 15.657L22.1004 14.0231L23.1997 12.6176L25.0808 14.2328L25.0864 15.657ZM25.1983 14.0034C25.1815 14.0178 25.1596 14.0257 25.1367 14.0257C25.1139 14.0257 25.092 14.0178 25.0752 14.0034L23.3026 12.4805L24.9891 10.3255L26.8546 12.5293L25.1983 14.0034ZM19.7484 9.36218L24.8929 1.395V10.1345C24.8926 10.1521 24.8864 10.1692 24.875 10.1833L23.1662 12.3632L19.7406 9.42239C19.7348 9.40247 19.7376 9.38123 19.7484 9.36322V9.36218ZM19.933 9.81478L23.0644 12.5034L21.9896 13.8767L19.933 9.81478ZM25.2631 15.6747V14.1768L26.9653 12.6632L28.2402 14.1664L25.2631 15.6747ZM28.3398 14.0138L27.095 12.547L30.1694 9.81374L28.3398 14.0138Z" fill="white"/>
<path d="M4.67367 28.5973L4.33816 28.4302C2.86415 27.6839 1.0289 26.7538 1.0289 25.4397C1.0289 23.9865 2.29602 22.7409 3.79463 22.7274C5.50574 22.6931 6.35682 24.5958 6.36688 24.6176L6.38142 24.6498H6.6968L6.66884 24.5802C6.65989 24.5584 5.81776 22.4949 3.82818 22.4949H3.77562C1.88557 22.5125 0.288541 23.9948 0.288541 25.7314C0.288541 27.6185 2.21214 28.6087 4.07311 29.572L4.32138 29.6997C5.16016 30.1273 7.11731 31.321 7.11731 33.1687C7.11731 36.1343 4.84366 36.946 3.64141 36.9605C1.58809 36.9958 0.350052 35.0838 0.33775 35.0641L0.322091 35.0392H0L0.0436181 35.1149C0.0548018 35.1367 1.27383 37.248 3.61234 37.248H3.63582C5.94526 37.2283 7.97174 35.2374 7.97174 32.986C7.97622 31.2297 6.86456 29.7547 4.67367 28.5973Z" fill="white"/>
<path d="M9.30939 37.2422H9.60128L11.337 30.3403H14.03L15.844 37.2422H16.9255L13.047 22.3206L9.30939 37.2422ZM11.403 30.0725L12.6544 25.0412L13.9629 30.0725H11.403Z" fill="white"/>
<path d="M22.022 22.4949H19.3826V37.2422H20.4406V27.8155H22.1797C22.5428 27.814 22.9009 27.7374 23.2281 27.5912C23.5552 27.4451 23.8431 27.233 24.0708 26.9706C24.5249 26.4626 24.7754 25.8245 24.7799 25.1645C24.7799 23.6927 23.543 22.4949 22.022 22.4949ZM20.4406 22.7637H22.022C22.9603 22.7637 23.6425 23.7726 23.6425 25.1645C23.6425 26.9207 22.8048 27.5518 22.022 27.5518H20.4406V22.7637Z" fill="white"/>
<path d="M27.7246 37.2422H28.7826V27.6141H34.5019V27.3453H28.7826V22.7637H34.5019V22.4949H27.7246V37.2422Z" fill="white"/>
<path d="M38.5055 22.4949H37.4476V37.2422H38.5055V22.4949Z" fill="white"/>
<path d="M45.314 27.7822C45.9479 27.6415 46.5121 27.3066 46.9157 26.8317C47.3193 26.3567 47.5387 25.7694 47.5384 25.1645C47.5384 23.6927 46.3015 22.4949 44.7805 22.4949H42.1412V37.2422H43.1992V27.8155H44.2717L48.9297 37.2422H50L45.314 27.7822ZM43.1992 22.7637H44.7805C45.72 22.7637 46.4011 23.7726 46.4011 25.1645C46.4011 26.9207 45.5634 27.5518 44.7805 27.5518H43.1992V22.7637Z" fill="white"/>
</svg>
